<?xml version="1.0" encoding="utf-8"?>
<!-- Generator: Adobe Illustrator 23.0.0, SVG Export Plug-In . SVG Version: 6.00 Build 0)  -->
<svg version="1.1" id="Layer_1" xmlns="http://www.w3.org/2000/svg" xmlns:xlink="http://www.w3.org/1999/xlink" x="0px" y="0px"
	 viewBox="0 0 500 500" style="enable-background:new 0 0 500 500;" xml:space="preserve">
<style type="text/css">
	.st0{fill:#FFFFFF;}
</style>
<title>logo7-bg</title>
<g>
	<circle class="st0" cx="362.2" cy="137.9" r="43.9"/>
	<circle class="st0" cx="362.2" cy="362.1" r="43.9"/>
	<circle class="st0" cx="137.9" cy="362.1" r="43.9"/>
	
		<ellipse transform="matrix(8.248055e-02 -0.9966 0.9966 8.248055e-02 -11.0996 264.0439)" class="st0" cx="137.9" cy="138.1" rx="43.9" ry="43.9"/>
	<path class="st0" d="M429.2,318.3v44l0,0c0,37.1-30.1,67.1-67.1,67.1c-37.1,0-67.1-30.1-67.1-67.1l0-101.4h-34.2v101.4
		c-0.6,56,44.4,101.9,100.4,102.4s101.9-44.4,102.4-100.4c0-0.7,0-1.3,0-2v-44L429.2,318.3z"/>
	<path class="st0" d="M94,204.9h44c37.1,0,67.1-30.1,67.1-67.1S175,70.7,137.9,70.7L36.6,70.6V36.4H138c56,0.6,101,46.4,100.4,102.4
		c-0.5,55.2-45.2,99.9-100.4,100.4H94V204.9z"/>
	<path class="st0" d="M429.2,181.8v-44l0,0c0-37.1-30.1-67.1-67.1-67.1c-37.1,0-67.1,30.1-67.1,67.1l0,101.4h-34.2V137.9
		c-0.6-56,44.4-101.9,100.4-102.4s101.9,44.4,102.4,100.4c0,0.7,0,1.3,0,2v44L429.2,181.8z"/>
	<path class="st0" d="M94,295.1h44c37.1,0,67.1,30.1,67.1,67.1s-30.1,67.1-67.1,67.1l-101.4,0.1v34.2H138
		c56,0,101.4-45.4,101.4-101.5c0-56-45.4-101.4-101.4-101.4H94V295.1z"/>
</g>
</svg>
