<svg xmlns="http://www.w3.org/2000/svg" viewBox="0 0 290 290">
  <defs>
    <style>
      	@import url(styles/styles.css);
    </style>
  </defs>
  <title>logo-anim</title>
  <g class="logo__b">
    <path class="logo__b-top" d="M95,240a45,45,0,0,0,0-90H50v15H95a30,30,0,0,1,0,60"/>   
    <circle class="logo__b-top__circle" cx="95" cy="95" r="20"/>
    <path class="logo__b-bot" d="M95,65a30,30,0,0,1,0,60H50v15H95a45,45,0,0,0,0-90"/>
    <circle class="logo__b-bot__circle" cx="95" cy="195" r="20"/>
    
  </g>
  <g class="logo__c">
    <path class="logo__c-top" d="M240,95a45,45,0,0,0-90,0v45h15V95a30,30,0,0,1,60,0"/>
    <circle class="logo__c-top__circle" cx="195" cy="95" r="20"/>
    <path class="logo__c-bot" d="M225,195a30,30,0,0,1-60,0V150H150v45a45,45,0,0,0,90,0"/>
    <circle class="logo__c-bot__circle" cx="195" cy="195" r="20"/>
  </g>

</svg>
