<?xml version="1.0" standalone="no"?>
<!DOCTYPE svg PUBLIC "-//W3C//DTD SVG 20010904//EN"
 "http://www.w3.org/TR/2001/REC-SVG-20010904/DTD/svg10.dtd">
<svg version="1.0" xmlns="http://www.w3.org/2000/svg"
 width="500.000000pt" height="500.000000pt" viewBox="0 0 500.000000 500.000000"
 preserveAspectRatio="xMidYMid meet">
<metadata>
Created by potrace 1.11, written by Peter Selinger 2001-2013
</metadata>
<g transform="translate(0.000000,500.000000) scale(0.100000,-0.100000)"
fill="#000000" stroke="none">
<path d="M1188 4994 c-3 -5 -5 -93 -6 -196 l0 -187 27 -5 c14 -3 52 -8 83 -11
256 -27 520 -231 618 -477 49 -125 60 -189 57 -328 -3 -108 -8 -137 -34 -215
-90 -265 -294 -456 -558 -524 -82 -21 -142 -22 -752 -23 l-623 0 0 -200 0
-199 673 4 c369 2 688 7 707 11 276 59 461 155 635 330 100 101 117 122 178
220 112 180 166 365 173 585 18 578 -374 1077 -940 1197 -88 18 -232 29 -238
18z"/>
<path d="M3679 4996 c-2 -2 -22 -6 -44 -9 -369 -51 -709 -300 -881 -646 -42
-85 -87 -213 -100 -286 -3 -16 -8 -43 -12 -60 -3 -16 -7 -330 -9 -697 l-4
-668 200 0 200 0 1 633 c1 347 3 643 5 657 28 199 131 382 285 507 161 130
386 197 580 172 246 -32 440 -152 574 -353 73 -111 109 -218 130 -391 3 -22 5
-40 6 -40 0 0 87 0 193 0 l192 0 0 75 c1 41 -2 89 -6 105 -4 17 -10 47 -13 68
-18 120 -115 335 -206 455 -73 98 -170 194 -265 263 -102 73 -300 166 -396
184 -31 6 -68 14 -99 21 -27 7 -325 15 -331 10z"/>
<path d="M1116 4338 c-230 -33 -420 -215 -452 -433 -25 -175 24 -331 146 -456
143 -148 345 -197 543 -133 175 57 318 223 352 409 7 39 7 143 1 175 -3 14 -9
39 -12 55 -26 120 -154 275 -277 333 -98 47 -202 64 -301 50z"/>
<path d="M3701 4330 c-185 -44 -330 -176 -387 -354 -31 -95 -29 -241 4 -334
99 -280 404 -423 682 -320 210 79 348 282 340 503 -4 117 -24 187 -78 271
-123 189 -349 283 -561 234z"/>
<path d="M0 2171 l0 -199 633 -1 c347 -1 646 -3 662 -6 17 -3 40 -8 53 -10 36
-6 93 -25 139 -46 24 -10 45 -19 49 -19 3 0 36 -20 73 -44 389 -251 479 -771
198 -1141 -138 -182 -342 -289 -587 -310 -14 -1 -28 -3 -32 -3 -3 -1 -5 -89
-5 -194 l2 -193 93 2 c213 6 453 99 642 248 219 174 363 406 426 690 18 79 27
342 14 401 -5 22 -11 56 -14 76 -18 118 -94 296 -185 433 -60 91 -216 247
-308 308 -77 51 -224 127 -246 127 -7 0 -17 4 -22 9 -9 8 -126 41 -205 57 -19
4 -338 9 -707 11 l-673 4 0 -200z"/>
<path d="M2633 1688 c3 -612 5 -690 21 -748 10 -36 19 -72 21 -80 8 -37 40
-121 71 -185 110 -234 326 -450 556 -559 78 -36 201 -80 254 -90 103 -18 141
-22 239 -25 625 -14 1162 475 1202 1094 l6 90 -199 0 -198 0 -3 -55 c-11 -150
-82 -327 -177 -441 -278 -336 -751 -389 -1096 -124 -108 84 -204 215 -253 345
-47 128 -48 146 -48 822 l0 638 -200 0 -200 0 4 -682z"/>
<path d="M3828 1715 c-2 -1 -32 -5 -68 -8 -167 -14 -340 -132 -413 -281 -109
-222 -61 -474 122 -637 289 -257 759 -115 855 259 78 300 -111 598 -416 655
-43 8 -79 13 -80 12z"/>
<path d="M1040 1691 c-252 -80 -403 -304 -378 -562 16 -176 126 -336 282 -413
214 -105 444 -68 610 98 57 57 117 144 121 176 1 3 6 21 13 40 17 52 22 88 23
160 0 232 -167 445 -398 505 -77 20 -204 18 -273 -4z"/>
</g>
</svg>
