<?xml version="1.0" standalone="no"?>
<!DOCTYPE svg PUBLIC "-//W3C//DTD SVG 20010904//EN"
 "http://www.w3.org/TR/2001/REC-SVG-20010904/DTD/svg10.dtd">
<svg version="1.0" xmlns="http://www.w3.org/2000/svg"
 width="428.000000pt" height="428.000000pt" viewBox="0 0 428.000000 428.000000"
 preserveAspectRatio="xMidYMid meet">
<metadata>
Created by potrace 1.11, written by Peter Selinger 2001-2013
</metadata>
<g transform="translate(0.000000,428.000000) scale(0.100000,-0.100000)"
fill="#000000" stroke="none">
<path d="M6 4271 c-1 -3 -2 -80 -2 -171 l1 -165 515 -2 c283 -1 540 -4 570 -7
275 -27 503 -224 577 -497 18 -67 23 -219 10 -294 -36 -202 -184 -390 -380
-480 -114 -53 -182 -62 -442 -63 -126 0 -240 -1 -252 -1 -23 -1 -23 -2 -23
-174 l0 -173 263 2 c150 0 295 6 340 13 208 33 401 132 553 285 69 69 181 218
189 251 1 6 14 36 29 68 14 32 35 93 46 135 120 463 -83 932 -503 1160 -62 34
-200 85 -257 96 -19 3 -46 9 -60 12 -33 9 -1170 13 -1174 5z"/>
<path d="M3109 4265 c-360 -59 -663 -301 -790 -629 -69 -178 -71 -202 -71
-801 0 -297 1 -551 1 -565 l1 -25 170 0 170 0 1 195 c3 941 1 892 24 994 21
100 108 240 200 323 129 117 286 174 470 169 119 -3 209 -28 306 -83 163 -93
297 -278 326 -448 3 -16 7 -37 8 -45 2 -8 4 -131 4 -272 l1 -258 174 0 175 0
-3 288 c-4 294 -11 362 -51 477 -106 303 -341 538 -639 639 -138 47 -336 64
-477 41z"/>
<path d="M3268 3706 c-1 -2 -28 -6 -60 -10 -225 -23 -392 -220 -383 -452 6
-165 94 -301 240 -374 187 -93 412 -44 540 117 135 171 126 409 -20 571 -67
74 -159 124 -255 138 -19 3 -40 7 -47 9 -6 2 -13 2 -15 1z"/>
<path d="M876 3675 c-130 -45 -234 -152 -276 -285 -43 -135 -18 -282 68 -395
188 -248 567 -227 727 40 78 131 83 281 15 422 -95 194 -326 288 -534 218z"/>
<path d="M583 2026 c-12 -19 -9 -328 3 -333 7 -2 131 -6 275 -7 269 -4 285 -5
367 -32 215 -72 379 -246 438 -465 21 -80 25 -223 8 -304 -53 -254 -240 -449
-494 -516 -69 -18 -49 -17 -820 -22 l-355 -2 0 -170 0 -170 570 0 c562 0 571
1 668 24 251 59 466 204 608 408 338 490 196 1150 -315 1457 -52 31 -188 90
-236 102 -132 33 -165 36 -433 38 -172 1 -280 -2 -284 -8z"/>
<path d="M2283 2032 c-18 -2 -33 -9 -34 -15 0 -7 0 -255 0 -552 -1 -546 2
-595 38 -730 84 -310 347 -582 663 -684 205 -66 454 -62 655 11 287 104 512
329 613 613 51 143 53 162 57 498 l3 287 -174 0 -174 0 0 -260 c0 -143 0 -262
-1 -265 -47 -269 -223 -476 -474 -557 -93 -30 -290 -33 -375 -5 -233 76 -402
248 -466 473 -17 60 -22 241 -23 969 l-1 220 -138 0 c-75 0 -152 -1 -169 -3z"/>
<path d="M909 1445 c-77 -21 -140 -57 -199 -115 -190 -189 -169 -500 46 -664
136 -104 341 -114 489 -24 299 181 275 628 -42 775 -28 13 -62 26 -75 29 -49
12 -175 11 -219 -1z"/>
<path d="M3144 1441 c-249 -71 -383 -335 -292 -579 72 -195 288 -316 491 -277
227 44 388 268 355 492 -40 267 -298 436 -554 364z"/>
</g>
</svg>
