<?xml version="1.0" standalone="no"?>
<!DOCTYPE svg PUBLIC "-//W3C//DTD SVG 20010904//EN"
 "http://www.w3.org/TR/2001/REC-SVG-20010904/DTD/svg10.dtd">
<svg version="1.0" xmlns="http://www.w3.org/2000/svg"
 width="430.000000pt" height="430.000000pt" viewBox="0 0 430.000000 430.000000"
 preserveAspectRatio="xMidYMid meet">
<metadata>
Created by potrace 1.11, written by Peter Selinger 2001-2013
</metadata>
<g transform="translate(0.000000,430.000000) scale(0.100000,-0.100000)"
fill="#000000" stroke="none">
<path d="M3237 4294 c-1 -1 -33 -4 -72 -8 -88 -8 -107 -11 -191 -37 -377 -116
-655 -438 -712 -824 -4 -27 -7 -302 -7 -610 l0 -560 170 0 170 0 1 535 c0 294
4 555 8 580 23 137 93 274 191 371 97 95 185 145 315 178 85 21 231 22 315 1
219 -55 404 -227 475 -440 30 -90 34 -132 34 -407 0 -211 2 -243 16 -244 22
-1 248 -1 295 0 l40 1 -1 242 c-1 290 -8 376 -40 487 -109 376 -440 667 -821
721 -67 9 -181 18 -186 14z"/>
<path d="M10 4113 l0 -173 523 -1 c287 -1 533 -2 547 -4 202 -21 367 -114 483
-272 170 -232 169 -563 -2 -792 -107 -143 -281 -246 -446 -265 -22 -3 -151 -5
-286 -5 l-247 -1 2 -172 1 -173 260 1 c344 1 399 9 575 84 524 222 758 858
506 1374 -64 132 -179 275 -283 352 -21 16 -44 34 -50 41 -28 26 -243 124
-313 142 -124 32 -164 34 -727 35 l-543 1 0 -172z"/>
<path d="M920 3694 c-195 -52 -322 -205 -335 -403 -9 -126 37 -244 130 -337
85 -85 182 -125 307 -125 395 1 588 474 307 753 -104 103 -270 149 -409 112z"/>
<path d="M3151 3694 c-330 -86 -434 -505 -185 -746 85 -83 203 -124 331 -115
279 20 466 285 393 558 -12 45 -40 98 -75 144 -106 141 -290 204 -464 159z"/>
<path d="M609 2042 l-26 -3 1 -172 1 -171 265 -2 c233 -2 274 -4 343 -23 238
-63 427 -257 482 -495 19 -83 18 -236 -2 -315 -21 -79 -74 -186 -128 -254 -54
-68 -161 -155 -225 -183 -8 -3 -29 -12 -46 -20 -100 -44 -143 -47 -716 -48
l-548 -1 0 -173 0 -173 578 4 c317 2 593 7 612 11 102 21 166 43 266 92 263
126 449 346 533 629 65 220 47 487 -48 698 -66 147 -186 297 -320 398 -131 99
-334 179 -490 195 -72 7 -483 12 -532 6z"/>
<path d="M2253 1453 l3 -588 27 -100 c101 -377 383 -650 767 -741 89 -21 286
-26 385 -9 263 45 493 187 656 406 91 123 169 321 185 469 5 44 9 470 5 557
-1 21 -4 21 -166 22 -119 0 -166 -3 -172 -12 -4 -6 -8 -124 -8 -262 -1 -261
-3 -279 -37 -384 -72 -224 -287 -408 -524 -447 -121 -20 -292 4 -397 57 -196
99 -339 291 -373 499 -4 25 -8 286 -8 580 l-1 535 -173 3 -172 2 3 -587z"/>
<path d="M920 1453 c-88 -22 -141 -53 -205 -117 -113 -113 -153 -251 -120
-415 11 -57 67 -154 118 -205 136 -136 340 -168 514 -80 97 49 181 150 217
262 18 53 24 170 12 209 -4 12 -9 32 -11 44 -8 40 -57 128 -94 169 -46 50
-127 104 -188 124 -66 22 -177 26 -243 9z"/>
<path d="M3174 1455 c-159 -34 -288 -154 -330 -307 -63 -228 60 -465 279 -537
283 -93 568 100 581 393 12 290 -247 511 -530 451z"/>
</g>
</svg>
